<?xml version="1.0" encoding="utf-8"?>
<!-- Generator: Adobe Illustrator 25.4.1, SVG Export Plug-In . SVG Version: 6.00 Build 0)  -->
<svg version="1.1" id="Layer_1" xmlns="http://www.w3.org/2000/svg" xmlns:xlink="http://www.w3.org/1999/xlink" x="0px" y="0px"
	 viewBox="0 0 784 673.9" style="enable-background:new 0 0 784 673.9;" xml:space="preserve">
<style type="text/css">
	.st0{fill-rule:evenodd;clip-rule:evenodd;}
</style>
<g>
	<g>
		<path d="M85.53,614.66c0-16.35,11.49-27.25,28.65-27.25c17.09,0,28.58,10.9,28.58,27.25s-11.49,27.25-28.58,27.25
			C97.02,641.92,85.53,631.02,85.53,614.66z M132.01,614.66c0-11.33-7.15-18.86-17.83-18.86c-10.68,0-17.9,7.53-17.9,18.86
			c0,11.33,7.22,18.86,17.9,18.86C124.87,633.53,132.01,626,132.01,614.66z"/>
		<path d="M214.28,596.52h-16.65v44.68h-10.39v-44.68h-16.57v-8.39h43.61V596.52z"/>
		<path d="M285.86,596.52h-16.65v44.68h-10.39v-44.68h-16.58v-8.39h43.61V596.52z"/>
		<path d="M319.21,588.13h10.39v53.07h-10.39V588.13z"/>
		<path d="M509.75,614.66c0,16.35-10.46,27.25-26.89,27.25c-16.87,0-28.07-10.9-28.07-27.25s11.05-27.25,28.07-27.25
			c7.81,0,14.22,1.94,19.3,5.88l-6.85,6.31c-2.87-2.58-6.92-3.8-12.3-3.8c-10.46,0-17.46,7.53-17.46,18.86
			c0,11.33,6.92,18.86,17.38,18.86c9.06,0,15.03-5.45,15.91-13.84h-14.07v-8.39h24.82C509.67,612.44,509.75,613.52,509.75,614.66z"
			/>
		<path d="M593.85,588.13v53.07h-10.39v-22.88h-29.17v22.88h-10.39v-53.07h10.39V610h29.17v-21.87H593.85z"/>
		<path d="M632.58,588.13h10.39v53.07h-10.39V588.13z"/>
		<path d="M716.17,632.81v8.39H681.7v-53.07h10.39v44.68H716.17z"/>
		<path d="M784,632.81v8.39h-34.47v-53.07h10.39v44.68H784z"/>
		<path d="M39.23,588.12v29.98c-9.46-15.99-20.82-23.96-29.29-27.51l-1.85-0.73c-3.39-1.23-6.23-1.75-8.08-1.75v1.75h0v51.32h10.01
			l-0.06-39.96c8.88,5.02,21.21,16.5,29.23,39.96h10.1v-53.07H39.23z"/>
		<path d="M410.41,588.12v29.98c-9.46-15.99-20.82-23.96-29.29-27.51l-1.85-0.73c-3.39-1.23-6.23-1.75-8.08-1.75v1.75h0v51.32h10.01
			l-0.06-39.96c8.88,5.02,21.21,16.5,29.23,39.96h10.1v-53.07H410.41z"/>
	</g>
	<g>
		<path d="M518.23,323.86c5.74,3.31,13.94,2.28,19.41,0.85c-1.49-5.44-4.7-13.07-10.44-16.38c-6.04-3.49-14.37-2.16-19.4-0.83
			C509.29,312.93,512.5,320.55,518.23,323.86z"/>
		<path d="M560.17,239.2c-4.01-3.96-10.6-8.97-17.23-8.97c-6.62,0-13.22,5-17.23,8.97c4.01,3.96,10.6,8.97,17.23,8.97
			C549.56,248.16,556.16,243.16,560.17,239.2z"/>
		<path d="M508.74,172.35c5.46,1.43,13.66,2.45,19.39-0.86c6.04-3.49,9.06-11.36,10.42-16.39c-5.45-1.42-13.65-2.45-19.39,0.86
			c-1.59,0.92-2.96,2.15-4.16,3.55c-1.17,2.5-2.42,5-3.82,7.54l0.06,0.06l-1.9,3.22C509.11,171.04,508.92,171.72,508.74,172.35z"/>
		<path d="M405.21,35.38c-4.22-0.3-8.53-0.44-13.21-0.44c-4.68,0-8.99,0.14-13.17,0.44c-107.17,6.82-191.09,96.35-191.09,203.82
			c0,12.03,1.05,24.02,3.11,35.66c2.18,12.42,5.57,24.77,10.1,36.72c18.23,48.11,53.07,86.41,96.96,109.09
			c6.73-5.59,13.1-11.61,19.06-18.02c1.69-6.51,5.98-28.99-5.99-56.12c-2.33-1.53-4.64-3.67-5.79-6.55
			c-2.78-6.99,2.43-15.62,2.43-15.62s9.71,2.7,12.49,9.69c0.86,2.17,0.95,4.5,0.67,6.67c8.12,17.77,10,33.79,9.7,45.78
			c7.95-10.52,14.88-21.79,20.64-33.61c-9.05-25.88-23.24-49.66-41.47-69.86c-5.92,10.17-13.95,18.96-23.59,25.79
			c-1.59,6.61-5.82,18.91-16.1,24.85c-4.84,2.79-10.23,3.72-15.26,3.72c-9.69,0-18.05-3.44-18.57-3.66l-3.97-1.66l0.54-4.27
			c0.11-0.86,2.83-21.1,16.97-29.27c11.97-6.91,27.31-2.41,32.23-0.66c8.14-6.28,14.79-14.26,19.56-23.37
			c-10.54-10.41-22.24-19.65-34.9-27.57c-4.97,5-14.33,12.58-25.51,12.58c-16.33,0-28.81-16.18-29.33-16.87l-2.6-3.43l2.6-3.43
			c0.52-0.69,13-16.87,29.33-16.87s28.81,16.18,29.33,16.87l0.18,0.24c26.97,16.45,49.87,38.71,67.19,64.78
			c0.44-4.69,0.41-9.43-0.09-14.19c-0.03-0.25-0.05-0.46-0.08-0.66l-0.05-0.32c-0.61-5.18-1.84-10.24-3.56-15.14
			c-2.3-1.6-4.57-3.82-5.64-6.75c-2.57-7.07,2.88-15.55,2.88-15.55s9.63,2.98,12.2,10.05c0.76,2.09,0.81,4.29,0.52,6.37
			c2.41,6.3,4.03,12.84,4.83,19.56c0.06,0.38,0.11,0.79,0.15,1.17c1.09,10.2,0.29,20.27-2.31,30c4.1,7.36,7.77,14.96,10.99,22.78
			c2.33-5.94,4.42-11.95,6.16-18.01c1.24-4.32,2.35-8.78,3.32-13.26l0.12-0.56c2.98-13.94,4.5-28.32,4.5-42.76
			c0-0.44,0-0.89-0.02-1.33c-0.06-8.79-0.68-17.45-1.81-25.99c-21.62-3.46-41.89-12.05-59.26-24.91c-5.23,4.17-11.5,7.11-18.46,8.36
			c-1.65,1.64-3.69,3.07-6.1,3.68c-7.29,1.86-15.18-4.41-15.18-4.41s3.92-9.29,11.21-11.15c2.86-0.73,5.8-0.2,8.33,0.7
			c4.08-0.77,7.83-2.34,11.12-4.54c-7.22-6.37-13.82-13.55-19.65-21.48c-3.38,1.08-9.14,2.55-15.47,2.55
			c-5.03,0-10.42-0.93-15.26-3.72c-14.14-8.17-16.86-28.41-16.97-29.27l-0.54-4.27l3.97-1.67c0.8-0.34,19.69-8.1,33.83,0.06
			c10.12,5.84,14.37,17.83,16.02,24.52c6.32,9.52,13.81,17.97,22.19,25.27c3.66-5.31,5.65-11.78,5.31-18.61
			c-1.34-2.24-2.39-4.91-2.29-7.76c0.28-7.52,8.53-13.31,8.53-13.31s7.8,6.39,7.52,13.91c-0.1,2.57-1.13,4.92-2.44,6.93
			c0.4,9.55-2.51,18.58-7.78,25.92c14.66,10.59,31.51,17.91,49.46,21.35c-3.44-17.8-9.23-34.99-17.38-51.44
			c-6.58-13.29-14.71-25.93-24.13-37.62c-5.23-0.97-20.61-4.77-27.48-16.67c-8.16-14.14-0.39-33.04-0.06-33.83l1.67-3.97l4.27,0.54
			c0.86,0.11,21.11,2.82,29.27,16.97c6.1,10.57,3.31,23.78,1.36,30.12c9.85,12.26,18.35,25.51,25.25,39.44
			c0.12,0.24,0.23,0.49,0.35,0.73c15.84-12.68,25.51-31.43,26.58-51.78c-3.56-2.97-15.94-14.3-15.94-28.59
			c0-16.33,16.18-28.81,16.87-29.33l3.43-2.6l3.43,2.6c0.69,0.52,16.87,13,16.87,29.33c0,11.7-8.28,21.39-13.25,26.16
			c-0.41,25.7-12.63,49.51-33.12,64.8c6.43,15.09,11.06,30.72,13.86,46.78c3.9,0.37,7.83,0.61,11.8,0.61c4.26,0,8.5-0.23,12.69-0.66
			c6.3-35.53,21.49-69.15,44.25-97.46c-1.94-6.33-4.75-19.56,1.35-30.14c8.17-14.14,28.41-16.86,29.27-16.97l4.27-0.54l1.67,3.96
			c0.34,0.8,8.11,19.69-0.06,33.83c-6.86,11.88-22.19,15.68-27.45,16.67c-20.88,25.87-35.02,56.45-41.4,88.83
			c17.87-3.62,34.7-11.12,49.3-21.81c-4.77-7.27-7.1-15.75-6.72-24.45c-1.31-2-2.33-4.36-2.43-6.92
			c-0.28-7.52,7.52-13.91,7.52-13.91s8.25,5.8,8.53,13.31c0.11,2.85-0.95,5.53-2.29,7.76c-0.3,6.03,1.18,11.92,4.28,17.05
			c9.42-8.3,17.65-18.05,24.29-29.04l0.13-1.34l0.68-0.48c2.41-6.36,6.66-13.89,14.03-18.15c14.14-8.16,33.04-0.39,33.83-0.06
			l3.97,1.67l-0.54,4.27c-0.11,0.86-2.83,21.11-16.97,29.27c-4.84,2.79-10.23,3.72-15.26,3.72c-7.32,0-13.87-1.96-16.87-3.02
			c-5.82,7.94-12.46,15.16-19.74,21.59c3.71,2.84,8.03,4.78,12.71,5.66c2.53-0.9,5.48-1.43,8.34-0.7
			c7.29,1.86,11.21,11.15,11.21,11.15s-7.9,6.27-15.18,4.41c-2.41-0.61-4.44-2.04-6.09-3.68c-7.48-1.34-14.33-4.61-19.97-9.55
			c-17.24,12.8-37.38,21.5-58.75,25.12c-1.24,9.08-1.89,18.27-1.89,27.51c0,14.45,1.51,28.84,4.49,42.78
			c0.99,4.65,2.15,9.29,3.44,13.8c1.74,6.05,3.82,12.07,6.15,18c3.25-7.89,6.97-15.56,11.11-22.99
			c-2.37-10.52-2.62-21.33-0.71-32.14c0.08-0.44,0.15-0.84,0.24-1.22c0.8-4.19,1.95-8.39,3.41-12.49c0.74-2.07,1.58-4.11,2.5-6.12
			c-0.35-2.46-0.27-5.17,0.82-7.62c3.06-6.87,12.87-9.19,12.87-9.19s4.86,8.83,1.8,15.71c-1.1,2.48-3.08,4.36-5.17,5.75
			c-0.79,1.74-1.52,3.5-2.16,5.29c-1.29,3.58-2.28,7.25-2.97,10.9l-0.07,0.31c-0.05,0.19-0.08,0.39-0.11,0.58
			c-0.89,5.01-1.23,10-1.06,14.94c17.24-25.65,39.9-47.57,66.54-63.82l0.18-0.24c0.52-0.69,13-16.87,29.33-16.87
			c16.33,0,28.81,16.18,29.33,16.87l2.6,3.43l-2.6,3.43c-0.52,0.69-13,16.87-29.33,16.87c-11.17,0-20.54-7.57-25.51-12.58
			c-12.66,7.92-24.36,17.17-34.9,27.57c4.68,8.95,11.19,16.79,19.12,23.03c5.78-1.91,19.98-5.47,31.21,1.01
			c14.14,8.17,16.86,28.41,16.97,29.27l0.54,4.27l-3.97,1.67c-0.52,0.22-8.89,3.66-18.58,3.66c-5.03,0-10.42-0.93-15.26-3.72
			c-10.99-6.35-15.07-19.95-16.4-26.12c-8.87-6.64-16.28-14.98-21.84-24.53c-18.23,20.2-32.42,43.98-41.47,69.86
			c5.77,11.84,12.71,23.12,20.67,33.65c-0.3-11.99,1.57-28.02,9.7-45.81c-0.28-2.18-0.19-4.5,0.67-6.67
			c2.78-6.99,12.49-9.69,12.49-9.69s5.21,8.63,2.43,15.62c-1.14,2.87-3.46,5.01-5.79,6.55c-11.99,27.18-7.66,49.69-5.98,56.16
			c5.87,6.31,12.14,12.24,18.76,17.76c43.92-22.9,79.27-61.43,97.24-108.86c4.52-11.95,7.91-24.3,10.09-36.71
			c2.06-11.64,3.11-23.64,3.11-35.67C596.26,131.72,512.34,42.19,405.21,35.38z M278.28,366.16c5.22-5.42,15.23-4.25,15.23-4.25
			s1.56,9.96-3.66,15.38c-5.22,5.42-15.23,4.25-15.23,4.25S273.06,371.58,278.28,366.16z M259.16,268.28
			c7.02-2.71,15.6,2.58,15.6,2.58s-2.8,9.69-9.82,12.39s-15.6-2.58-15.6-2.58S252.15,270.98,259.16,268.28z M366.87,138.13
			c0,0-10.99-3.55-13.84-11.68c-2.85-8.13,3.51-17.77,3.51-17.77s10.99,3.55,13.84,11.68C373.24,128.49,366.87,138.13,366.87,138.13
			z M391.95,206.72c0,0-8.65-6.62-8.63-14.75c0.03-8.13,8.73-14.69,8.73-14.69s8.65,6.62,8.63,14.75
			C400.65,200.16,391.95,206.72,391.95,206.72z M431.41,126.45c-2.85,8.13-13.84,11.68-13.84,11.68s-6.36-9.64-3.51-17.77
			c2.85-8.13,13.84-11.68,13.84-11.68S434.26,118.32,431.41,126.45z M516.22,283.25c-7.02-2.71-9.82-12.39-9.82-12.39
			s8.58-5.29,15.6-2.58c7.02,2.71,9.82,12.39,9.82,12.39S523.24,285.96,516.22,283.25z M512.23,381.54c0,0-10.01,1.17-15.23-4.25
			c-5.22-5.42-3.66-15.38-3.66-15.38s10.01-1.17,15.23,4.25C513.79,371.58,512.23,381.54,512.23,381.54z"/>
		<path d="M355.8,368.38c-8,14.33-17.66,27.76-28.71,39.94c0,0.01-0.01,0.02-0.01,0.03l-0.01,0c-5.65,6.23-11.66,12.13-17.99,17.67
			c16.44,7.26,33.97,12.41,52.27,15.15c2.43-22.94,0.99-45.94-4.39-68.44C356.61,371.27,356.18,369.83,355.8,368.38z"/>
		<path d="M428.2,368.38c-0.38,1.45-0.81,2.88-1.15,4.34c-5.38,22.5-6.82,45.48-4.4,68.41c18.11-2.75,35.61-7.94,52.07-15.3
			C456.08,409.52,440.26,389.97,428.2,368.38z"/>
		<path d="M420.41,353.08c-4.43-9.7-8.15-19.73-11.06-29.85c-1.37-4.76-2.59-9.66-3.63-14.56c-3.15-14.71-4.74-29.9-4.74-45.15
			c0-8.75,0.57-17.45,1.62-26.06c-3.64,0.3-7.31,0.47-11,0.47c-3.39,0-6.76-0.14-10.1-0.39c0.95,8.03,1.46,16.15,1.52,24.36
			c0.02,0.39,0.02,1.02,0.02,1.62c0,15.03-1.55,30.01-4.62,44.54v0l-0.12,0.61c-1.05,4.91-2.27,9.81-3.63,14.56
			c-2.9,10.1-6.61,20.12-11.04,29.81v0.98l-0.12,0.13c1.69,5.25,3.19,10.57,4.47,15.96c5.7,23.81,7.21,48.15,4.62,72.43
			c2.54,0.24,5.11,0.45,7.76,0.6c7.65,0.44,15.65,0.44,23.28,0c2.71-0.16,5.29-0.37,7.77-0.61c-2.59-24.28-1.08-48.61,4.62-72.43
			c1.28-5.35,2.76-10.64,4.43-15.85l-0.04-0.04L420.41,353.08z"/>
		<path d="M244.92,324.71c5.45,1.42,13.66,2.45,19.39-0.86c5.74-3.31,8.95-10.94,10.44-16.38c-5.45-1.43-13.67-2.46-19.41,0.85
			C249.3,311.82,246.28,319.69,244.92,324.71z"/>
		<path d="M392,0C259.9,0,152.8,107.09,152.8,239.2c0,132.1,107.09,239.2,239.2,239.2S631.2,371.3,631.2,239.2
			C631.2,107.09,524.1,0,392,0z M593.65,315.58c-13.98,36.92-37.91,69.32-69.18,93.71c-31.76,24.77-69.67,40.08-109.64,44.28
			c-3.29,0.35-6.84,0.64-10.54,0.86c-4.04,0.23-8.17,0.35-12.29,0.35c-4.12,0-8.25-0.12-12.28-0.35c-4.31-0.24-8.52-0.6-12.5-1.07
			c-80.36-9.17-148.14-61.97-176.87-137.78c-4.77-12.62-8.36-25.66-10.66-38.76c-2.18-12.28-3.28-24.94-3.28-37.63
			c0-113.43,88.58-207.93,201.66-215.12c4.41-0.31,8.98-0.46,13.93-0.46s9.52,0.15,13.97,0.47
			c113.04,7.19,201.62,101.69,201.62,215.12c0,12.69-1.1,25.36-3.28,37.64C602.01,289.93,598.43,302.97,593.65,315.58z"/>
		<path d="M475.23,112.97c3.49-6.04,2.16-14.37,0.83-19.4c-5.43,1.49-13.05,4.7-16.36,10.43c-3.31,5.74-2.28,13.95-0.85,19.41
			C464.29,121.91,471.92,118.7,475.23,112.97z"/>
		<path d="M265.77,155.96c-6.04-3.49-14.37-2.16-19.4-0.83c1.49,5.44,4.7,13.05,10.44,16.36c6.04,3.49,14.37,2.16,19.4,0.83
			C274.71,166.89,271.5,159.27,265.77,155.96z"/>
		<path d="M223.83,239.2c4.01,3.96,10.61,8.97,17.23,8.97c6.62,0,13.22-5,17.23-8.97c-4.01-3.96-10.61-8.97-17.23-8.97
			C234.44,230.23,227.85,235.23,223.83,239.2z"/>
		<path d="M392,71.03c-3.96,4.01-8.97,10.61-8.97,17.23c0,6.62,5,13.22,8.97,17.23c3.96-4.01,8.97-10.61,8.97-17.23
			C400.97,81.64,395.97,75.04,392,71.03z"/>
		<path d="M307.92,93.56c-1.43,5.45-2.46,13.67,0.85,19.41c3.31,5.74,10.94,8.95,16.38,10.44c1.43-5.45,2.46-13.67-0.85-19.41
			C320.98,98.26,313.36,95.05,307.92,93.56z"/>
	</g>
</g>
</svg>
